<?xml version="1.0" encoding="UTF-8"?>
<svg width="100px" height="42px" viewBox="0 0 100 42" version="1.1" xmlns="http://www.w3.org/2000/svg" xmlns:xlink="http://www.w3.org/1999/xlink">
    <!-- Generator: sketchtool 52.6 (67491) - http://www.bohemiancoding.com/sketch -->
    <title>C89279D8-DFEE-4CBF-AFF8-B5BD6CB0F2A9</title>
    <desc>Created with sketchtool.</desc>
    <g id="Style-guide" stroke="none" stroke-width="1" fill="none" fill-rule="evenodd">
        <g id="assets" transform="translate(-48.000000, -69.000000)" fill="#2C8F5D">
            <g id="Logo-green-" transform="translate(48.000000, 69.000000)">
                <g transform="translate(0.000000, 0.000000)">
                    <path d="M9.93045564,0.0467625899 C7.92565947,-0.0659472422 6.15827338,0.571942446 5.20023981,1.75419664 C4.21103118,2.97601918 3.68944844,4.49280576 3.68944844,6.14028777 L3.68944844,12.2218225 L0,12.2218225 L0,16.6522782 L3.68944844,16.6522782 L3.68944844,41.4532374 L8.05275779,41.4532374 L8.05275779,16.6510791 L11.7470024,16.6510791 L11.7470024,12.2206235 L8.05275779,12.2206235 L8.05275779,6.04436451 C8.05275779,5.45803357 8.25899281,5.0059952 8.68345324,4.6618705 C9.20143885,4.24220624 11.0935252,4.52517986 12.2721823,4.85971223 L12.8693046,5.02997602 L12.8693046,0.839328537 L12.647482,0.701438849 C12.6115108,0.678657074 11.7398082,0.148681055 9.93045564,0.0467625899" id="Fill-1"></path>
                    <path d="M19.1414868,14.1990408 L19.1414868,12.2218225 L14.8848921,12.2218225 L14.8848921,41.4508393 L19.1414868,41.4508393 L19.1414868,24.498801 C19.1414868,22.6882494 19.2901679,19.8093525 20.5107914,18.3944844 C22.5755396,16.0047962 25.7446043,16.5263789 25.8645084,16.5491607 L26.4184652,16.6522782 L26.4184652,12.3980815 L26.0395683,12.323741 C25.8645084,12.2901679 22.0503597,11.6354916 19.1414868,14.1990408" id="Fill-2"></path>
                    <path d="M31.9664269,22.383693 C32.1151079,21.3776978 32.3944844,20.3693046 32.7721823,19.470024 C32.8848921,19.2026379 33.9436451,16.8501199 36.4208633,16.6618705 C37.294964,16.5815348 38.1378897,16.8153477 38.9268585,17.3597122 C39.9772182,18.0839329 40.6942446,19.2314149 40.9472422,20.588729 C41.0095923,20.9268585 41.0683453,21.3033573 41.1342926,21.8105516 C41.2182254,22.4436451 41.2817746,23.2446043 41.3153477,24.0635492 L31.7865707,24.0635492 C31.8285372,23.4760192 31.8920863,22.8752998 31.9664269,22.383693 Z M41.4220624,31.0731415 C41.4244604,31.1031175 41.5995204,34.1067146 39.9100719,35.8633094 C39.0659472,36.7410072 37.8788969,37.1666667 36.3776978,37.1247002 C35.2517986,37.0947242 34.3501199,36.6882494 33.6223022,35.882494 C31.7446043,33.8033573 31.6882494,29.7326139 31.7254197,28.3992806 L45.7877698,28.3992806 L45.7877698,26.8441247 C45.7877698,21.8153477 45.2541966,18.5971223 44.058753,16.4088729 C42.6043165,13.7482014 40.0563549,12.2817746 36.882494,12.2817746 C33.7769784,12.2817746 31.2206235,13.6846523 29.4904077,16.3393285 C27.5479616,19.3189448 27.4268585,22.7482014 27.2877698,26.7182254 C27.1822542,29.7435252 27.441247,32.4568345 28.058753,34.7853717 C28.6366906,36.9664269 29.8681055,38.7482014 31.6199041,39.9388489 C33.0959233,40.942446 34.9052758,41.4856115 36.7517986,41.4856115 C36.8848921,41.4856115 37.0167866,41.4832134 37.1498801,41.4772182 C39.118705,41.3932854 41.0107914,40.6930456 42.4784173,39.5023981 C44.1043165,38.1846523 45.1678657,36.322542 45.557554,34.117506 C45.7290168,33.1486811 45.823741,32.1164269 45.8393285,31.0503597 L45.8465228,30.5743405 L41.3884892,30.5743405 L41.4220624,31.0731415 Z" id="Fill-3"></path>
                    <path d="M60.2086331,25.2398082 L55.822542,23.5671463 C54.6199041,23.0083933 53.5779376,22.1055156 53.3477218,20.4928058 C53.2314149,19.6810552 53.4496403,18.6294964 54.1247002,17.8285372 C54.5455635,17.3297362 55.4676259,16.5131894 56.91247,16.6450839 C57.9076739,16.736211 58.7002398,17.1354916 59.2697842,17.8321343 C60.6606715,19.5347722 60.3549161,22.4748201 60.3513189,22.5035971 L60.2925659,23.0239808 L64.6522782,23.0275779 L64.6978417,22.6079137 C64.706235,22.5275779 64.9028777,20.618705 64.3848921,18.4544365 C63.6834532,15.5239808 62.0035971,13.5527578 59.5251799,12.7529976 C57.4796163,12.0923261 55.5851319,12.1199041 53.7326139,12.8369305 C52.3597122,13.3681055 51.0611511,14.3980815 50.2589928,15.5923261 C48.9916067,17.4784173 48.558753,19.6714628 49.0383693,21.7673861 C49.5323741,23.9220624 50.9304556,25.7673861 52.9772182,26.9628297 C53.647482,27.3549161 57.1546763,28.9160671 58.028777,29.1978417 L58.0251799,29.205036 C59.1354916,29.5551559 59.82494,30.2529976 60.2505995,30.9652278 C61.1115108,32.4028777 61.028777,34.264988 60.0335731,35.6127098 C59.3513189,36.5359712 58.1594724,37.3069544 56.0827338,37.0635492 C56.0683453,37.0623501 54.6007194,36.9676259 53.5227818,35.7410072 C52.5983213,34.6894484 52.205036,33.1199041 52.3549161,31.0767386 L52.3920863,30.5730216 L47.9316547,30.5730216 L47.9004796,31.0095923 C47.705036,33.8033573 48.2410072,36.116307 49.4952038,37.8823741 C50.4388489,39.2122302 51.764988,40.2074341 53.4340528,40.8429257 C54.4772182,41.2386091 55.5719424,41.4364508 56.6606715,41.4364508 C58.028777,41.4364508 59.3884892,41.1258993 60.6211031,40.5095923 C63.4556355,39.0947242 64.58753,36.6510791 64.941247,35.6666667 C65.4592326,34.2290168 65.58753,32.3477218 65.2673861,30.8741007 C64.7266187,28.381295 63.1666667,26.6438849 60.2086331,25.2398082" id="Fill-4"></path>
                    <path d="M76.4232614,12.117506 C74.8872902,12.0815348 73.8549161,12.1151079 71.852518,13.1606715 L71.852518,0.00239808153 L67.4604317,0.00239808153 L67.4604317,41.4508393 L71.8705036,41.4508393 L71.8705036,21.8333333 C71.7817746,19.236211 72.6654676,17.4904077 74.4280576,16.7829736 C75.5263789,16.3429257 76.7589928,16.4052758 77.8105516,16.9556355 C78.6570743,17.3992806 79.3201439,18.1450839 79.677458,19.0563549 C79.971223,19.8057554 80.1199041,20.6366906 80.1199041,21.5251799 L80.1199041,41.4508393 L84.528777,41.4508393 L84.528777,21.2733813 C84.528777,19.3956835 84.0407674,17.5395683 83.1534772,16.0503597 C83.059952,15.8944844 80.8333333,12.2218225 76.4232614,12.117506" id="Fill-5"></path>
                    <polygon id="Fill-6" points="87.1522782 41.4508393 91.5503597 41.4508393 91.5503597 12.3033573 87.1522782 12.3033573"></polygon>
                    <path d="M89.3513189,0.00239808153 C87.7541966,0.00239808153 86.4556355,1.30095923 86.4556355,2.89688249 C86.4556355,4.4940048 87.7541966,5.79256595 89.3513189,5.79256595 C90.9472422,5.79256595 92.2458034,4.4940048 92.2458034,2.89688249 C92.2458034,1.30095923 90.9472422,0.00239808153 89.3513189,0.00239808153" id="Fill-7"></path>
                    <polygon id="Fill-8" points="94.9064748 41.4508393 99.3033573 41.4508393 99.3033573 12.3033573 94.9064748 12.3033573"></polygon>
                    <path d="M97.1055156,5.79256595 C98.7014388,5.79256595 100,4.4940048 100,2.89688249 C100,1.30095923 98.7014388,0.00239808153 97.1055156,0.00239808153 C95.5083933,0.00239808153 94.2098321,1.30095923 94.2098321,2.89688249 C94.2098321,4.4940048 95.5083933,5.79256595 97.1055156,5.79256595" id="Fill-9"></path>
                </g>
            </g>
        </g>
    </g>
</svg>